<svg width="44" height="44" viewBox="0 0 44 44" fill="none" xmlns="http://www.w3.org/2000/svg">
<path opacity="0.5" d="M18.3333 3.66667C16.5614 3.66667 15.125 5.10308 15.125 6.875C15.125 8.64692 16.5614 10.0833 18.3333 10.0833H25.6667C27.4386 10.0833 28.875 8.64692 28.875 6.875C28.875 5.10308 27.4386 3.66667 25.6667 3.66667H18.3333Z" fill="#1C274C"/>
<path opacity="0.5" d="M7.08267 29.7095C5.50976 23.4179 4.72331 20.2721 6.37483 18.1569C8.02636 16.0417 11.269 16.0417 17.7542 16.0417H26.2438C32.729 16.0417 35.9717 16.0417 37.6233 18.1569C39.2748 20.2721 38.4883 23.4179 36.9155 29.7095C35.915 33.7111 35.4149 35.7119 33.9229 36.8768C32.4309 38.0417 30.3686 38.0417 26.2438 38.0417H17.7542C13.6295 38.0417 11.5671 38.0417 10.0752 36.8768C8.58327 35.7119 8.08306 33.7111 7.08267 29.7095Z" fill="#1C274C"/>
<path d="M28.5643 8.25422C28.7636 7.8364 28.875 7.36874 28.875 6.875C28.875 6.38358 28.7645 5.91795 28.567 5.50163C29.8201 5.51073 30.7969 5.56826 31.6687 5.909C32.7104 6.31613 33.6164 7.00821 34.2832 7.9061C34.956 8.81192 35.2717 9.97295 35.7064 11.571L35.7915 11.8833L36.7314 17.3154C35.9821 16.7986 35.016 16.4914 33.7664 16.3089L33.104 12.4809C32.5837 10.5748 32.3948 9.97575 32.0755 9.54569C31.7165 9.0622 31.2285 8.68954 30.6677 8.47033C30.2647 8.31283 29.7778 8.26648 28.5643 8.25422Z" fill="#1C274C"/>
<path d="M15.433 5.50163C15.2355 5.91795 15.125 6.38358 15.125 6.875C15.125 7.36874 15.2365 7.83642 15.4358 8.25424C14.2224 8.2665 13.7355 8.31283 13.3325 8.47033C12.7716 8.68954 12.2837 9.0622 11.9246 9.54569C11.6053 9.97575 11.4164 10.5748 10.8962 12.4809L10.2338 16.3088C8.98429 16.4912 8.01812 16.7981 7.26886 17.3146L8.2087 11.8833L8.29375 11.571C8.72839 9.97297 9.04419 8.81192 9.71689 7.9061C10.3837 7.00821 11.2898 6.31613 12.3314 5.909C13.2032 5.56827 14.1799 5.51074 15.433 5.50163Z" fill="#1C274C"/>
<path d="M16.0417 23.375C16.0417 22.6156 15.4261 22 14.6667 22C13.9073 22 13.2917 22.6156 13.2917 23.375V30.7083C13.2917 31.4677 13.9073 32.0833 14.6667 32.0833C15.4261 32.0833 16.0417 31.4677 16.0417 30.7083V23.375Z" fill="#1C274C"/>
<path d="M29.3333 22C30.0927 22 30.7083 22.6156 30.7083 23.375V30.7083C30.7083 31.4677 30.0927 32.0833 29.3333 32.0833C28.5739 32.0833 27.9583 31.4677 27.9583 30.7083V23.375C27.9583 22.6156 28.5739 22 29.3333 22Z" fill="#1C274C"/>
<path d="M23.375 23.375C23.375 22.6156 22.7594 22 22 22C21.2406 22 20.625 22.6156 20.625 23.375V30.7083C20.625 31.4677 21.2406 32.0833 22 32.0833C22.7594 32.0833 23.375 31.4677 23.375 30.7083V23.375Z" fill="#1C274C"/>
</svg>
