<svg width="58" height="58" viewBox="0 0 58 58" fill="none" xmlns="http://www.w3.org/2000/svg">
<g clip-path="url(#clip0_57_48)">
<path d="M58.0001 43.5C58.0001 45.2092 57.3211 46.8483 56.1125 48.0569C54.904 49.2655 53.2648 49.9444 51.5556 49.9444H38.6667V8.05554H51.5556C53.2648 8.05554 54.904 8.73451 56.1125 9.94308C57.3211 11.1516 58.0001 12.7908 58.0001 14.5V43.5Z" fill="#ED2939"/>
<path d="M6.44444 8.05554C4.73527 8.05554 3.0961 8.73451 1.88753 9.94308C0.678966 11.1516 0 12.7908 0 14.5L0 43.5C0 45.2092 0.678966 46.8483 1.88753 48.0569C3.0961 49.2655 4.73527 49.9444 6.44444 49.9444H19.3333V8.05554H6.44444Z" fill="#002495"/>
<path d="M19.3333 8.05554H38.6666V49.9444H19.3333V8.05554Z" fill="#EEEEEE"/>
</g>
<defs>
<clipPath id="clip0_57_48">
<rect width="58" height="58" fill="white"/>
</clipPath>
</defs>
</svg>
