<svg width="419" height="126" viewBox="0 0 419 126" fill="none" xmlns="http://www.w3.org/2000/svg">
<path d="M81.376 27.184C74.784 23.344 67.488 21.136 59.488 20.56V82H52.384V20.56C44.512 21.072 37.184 23.28 30.4 27.184L27.808 21.616C36.128 16.688 45.472 14.224 55.84 14.224C66.4 14.224 75.776 16.688 83.968 21.616L81.376 27.184ZM121.314 14.224C130.018 14.224 136.866 16.784 141.858 21.904C146.914 26.96 149.442 34.288 149.442 43.888V82H142.434V62.224H100.194V82H93.2821V43.888C93.2821 34.288 95.7781 26.96 100.77 21.904C105.826 16.784 112.674 14.224 121.314 14.224ZM142.434 56.08V43.216C142.434 35.728 140.578 30.096 136.866 26.32C133.154 22.48 127.97 20.56 121.314 20.56C114.658 20.56 109.474 22.48 105.762 26.32C102.05 30.096 100.194 35.728 100.194 43.216V56.08H142.434Z" fill="#2C2A2A"/>
<path d="M251.871 14.8L222.111 82H215.103L185.343 14.8H193.023L218.751 73.168L244.671 14.8H251.871ZM317.532 14.8V82H310.716V70.672C306.3 78.608 298.78 82.576 288.156 82.576C280.156 82.576 273.884 80.176 269.34 75.376C264.796 70.576 262.524 63.728 262.524 54.832V14.8H269.628V54.64C269.628 61.744 271.356 67.12 274.812 70.768C278.332 74.416 283.228 76.24 289.5 76.24C296.092 76.24 301.212 74.32 304.86 70.48C308.572 66.576 310.428 60.752 310.428 53.008V14.8H317.532ZM387.483 74.32C384.731 76.944 381.051 78.992 376.443 80.464C371.899 81.872 366.843 82.576 361.275 82.576C355.387 82.576 350.363 81.776 346.203 80.176C342.107 78.576 339.003 76.368 336.891 73.552C334.843 70.736 333.819 67.504 333.819 63.856C333.819 59.824 335.003 56.4 337.371 53.584C339.803 50.768 342.971 48.816 346.875 47.728C343.675 46.512 341.179 44.592 339.387 41.968C337.595 39.28 336.699 36.144 336.699 32.56C336.699 29.168 337.659 26.096 339.579 23.344C341.563 20.528 344.507 18.32 348.411 16.72C352.379 15.056 357.147 14.224 362.715 14.224C366.811 14.224 370.779 14.704 374.619 15.664C378.523 16.56 381.851 17.872 384.603 19.6L382.395 25.264C376.507 21.936 370.043 20.272 363.003 20.272C356.795 20.272 352.027 21.456 348.699 23.824C345.435 26.192 343.803 29.264 343.803 33.04C343.803 36.816 345.115 39.728 347.739 41.776C350.427 43.824 354.203 44.848 359.067 44.848H375.771V50.992H358.779C353.275 50.992 348.923 52.048 345.723 54.16C342.523 56.208 340.923 59.28 340.923 63.376C340.923 67.408 342.651 70.608 346.107 72.976C349.627 75.344 354.779 76.528 361.563 76.528C366.299 76.528 370.715 75.856 374.811 74.512C378.907 73.168 382.235 71.312 384.795 68.944L387.483 74.32Z" fill="#70D7E7"/>
<path d="M7.904 119.16C6.38933 119.16 5.216 118.733 4.384 117.88C3.57333 117.027 3.168 115.843 3.168 114.328V95.256H5.44V114.136C5.44 115.139 5.67467 115.907 6.144 116.44C6.61333 116.952 7.31733 117.208 8.256 117.208C8.85333 117.208 9.36533 117.112 9.792 116.92L9.952 118.808C9.29067 119.043 8.608 119.16 7.904 119.16ZM28.2813 102.168V119H26.1053V115.928C25.508 116.952 24.6866 117.752 23.6413 118.328C22.596 118.883 21.4013 119.16 20.0573 119.16C17.86 119.16 16.1213 118.552 14.8413 117.336C13.5826 116.099 12.9533 114.296 12.9533 111.928V102.168H15.2253V111.704C15.2253 113.475 15.6626 114.819 16.5373 115.736C17.412 116.653 18.66 117.112 20.2813 117.112C22.052 117.112 23.4493 116.579 24.4733 115.512C25.4973 114.424 26.0093 112.92 26.0093 111V102.168H28.2813ZM43.2909 102.04C45.4029 102.04 47.0775 102.659 48.3149 103.896C49.5735 105.112 50.2029 106.893 50.2029 109.24V119H47.9309V109.464C47.9309 107.715 47.4935 106.381 46.6189 105.464C45.7442 104.547 44.4962 104.088 42.8749 104.088C41.0615 104.088 39.6215 104.632 38.5549 105.72C37.5095 106.787 36.9869 108.269 36.9869 110.168V119H34.7149V102.168H36.8909V105.272C37.5095 104.248 38.3629 103.459 39.4509 102.904C40.5602 102.328 41.8402 102.04 43.2909 102.04ZM63.7039 117.144C64.7493 117.144 65.7093 116.963 66.5839 116.6C67.4799 116.216 68.2373 115.661 68.8559 114.936L70.1359 116.408C69.3893 117.304 68.4613 117.987 67.3519 118.456C66.2426 118.925 65.0159 119.16 63.6719 119.16C61.9439 119.16 60.4079 118.797 59.0639 118.072C57.7199 117.325 56.6746 116.301 55.9279 115C55.1813 113.699 54.8079 112.227 54.8079 110.584C54.8079 108.941 55.1599 107.469 55.8639 106.168C56.5893 104.867 57.5813 103.853 58.8399 103.128C60.0986 102.403 61.5279 102.04 63.1279 102.04C64.6213 102.04 65.9653 102.381 67.1599 103.064C68.3759 103.747 69.3359 104.696 70.0399 105.912C70.7653 107.128 71.1493 108.515 71.1919 110.072L57.3679 112.76C57.7946 114.125 58.5626 115.203 59.6719 115.992C60.8026 116.76 62.1466 117.144 63.7039 117.144ZM63.1279 103.992C61.9546 103.992 60.8986 104.269 59.9599 104.824C59.0426 105.357 58.3173 106.115 57.7839 107.096C57.2719 108.056 57.0159 109.165 57.0159 110.424C57.0159 110.744 57.0266 110.979 57.0479 111.128L68.9199 108.824C68.6639 107.416 68.0133 106.264 66.9679 105.368C65.9226 104.451 64.6426 103.992 63.1279 103.992ZM84.1748 117.976C83.7481 118.36 83.2254 118.659 82.6068 118.872C81.9881 119.064 81.3374 119.16 80.6548 119.16C79.0761 119.16 77.8601 118.733 77.0068 117.88C76.1534 117.027 75.7268 115.821 75.7268 114.264V98.488H77.9988V102.168H83.0868V104.088H77.9988V114.136C77.9988 115.139 78.2441 115.907 78.7348 116.44C79.2254 116.952 79.9401 117.208 80.8788 117.208C81.9028 117.208 82.7348 116.92 83.3748 116.344L84.1748 117.976ZM96.6513 117.976C96.2246 118.36 95.702 118.659 95.0833 118.872C94.4646 119.064 93.814 119.16 93.1313 119.16C91.5526 119.16 90.3366 118.733 89.4833 117.88C88.63 117.027 88.2033 115.821 88.2033 114.264V98.488H90.4753V102.168H95.5633V104.088H90.4753V114.136C90.4753 115.139 90.7206 115.907 91.2113 116.44C91.702 116.952 92.4166 117.208 93.3553 117.208C94.3793 117.208 95.2113 116.92 95.8513 116.344L96.6513 117.976ZM107.446 117.144C108.491 117.144 109.451 116.963 110.326 116.6C111.222 116.216 111.979 115.661 112.598 114.936L113.878 116.408C113.131 117.304 112.203 117.987 111.094 118.456C109.985 118.925 108.758 119.16 107.414 119.16C105.686 119.16 104.15 118.797 102.806 118.072C101.462 117.325 100.417 116.301 99.6701 115C98.9235 113.699 98.5501 112.227 98.5501 110.584C98.5501 108.941 98.9021 107.469 99.6061 106.168C100.331 104.867 101.323 103.853 102.582 103.128C103.841 102.403 105.27 102.04 106.87 102.04C108.363 102.04 109.707 102.381 110.902 103.064C112.118 103.747 113.078 104.696 113.782 105.912C114.507 107.128 114.891 108.515 114.934 110.072L101.11 112.76C101.537 114.125 102.305 115.203 103.414 115.992C104.545 116.76 105.889 117.144 107.446 117.144ZM106.87 103.992C105.697 103.992 104.641 104.269 103.702 104.824C102.785 105.357 102.059 106.115 101.526 107.096C101.014 108.056 100.758 109.165 100.758 110.424C100.758 110.744 100.769 110.979 100.79 111.128L112.662 108.824C112.406 107.416 111.755 106.264 110.71 105.368C109.665 104.451 108.385 103.992 106.87 103.992ZM124.141 119.16C122.776 119.16 121.464 118.968 120.205 118.584C118.968 118.179 117.997 117.677 117.293 117.08L118.317 115.288C119.021 115.843 119.906 116.301 120.973 116.664C122.04 117.005 123.149 117.176 124.301 117.176C125.837 117.176 126.968 116.941 127.693 116.472C128.44 115.981 128.813 115.299 128.813 114.424C128.813 113.805 128.61 113.325 128.205 112.984C127.8 112.621 127.288 112.355 126.669 112.184C126.05 111.992 125.229 111.811 124.205 111.64C122.84 111.384 121.741 111.128 120.909 110.872C120.077 110.595 119.362 110.136 118.765 109.496C118.189 108.856 117.901 107.971 117.901 106.84C117.901 105.432 118.488 104.28 119.661 103.384C120.834 102.488 122.466 102.04 124.557 102.04C125.645 102.04 126.733 102.189 127.821 102.488C128.909 102.765 129.805 103.139 130.509 103.608L129.517 105.432C128.13 104.472 126.477 103.992 124.557 103.992C123.106 103.992 122.008 104.248 121.261 104.76C120.536 105.272 120.173 105.944 120.173 106.776C120.173 107.416 120.376 107.928 120.781 108.312C121.208 108.696 121.73 108.984 122.349 109.176C122.968 109.347 123.821 109.528 124.909 109.72C126.253 109.976 127.33 110.232 128.141 110.488C128.952 110.744 129.645 111.181 130.221 111.8C130.797 112.419 131.085 113.272 131.085 114.36C131.085 115.832 130.466 117.005 129.229 117.88C128.013 118.733 126.317 119.16 124.141 119.16ZM152.473 102.04C154.051 102.04 155.481 102.403 156.761 103.128C158.041 103.832 159.043 104.835 159.769 106.136C160.494 107.437 160.857 108.92 160.857 110.584C160.857 112.269 160.494 113.763 159.769 115.064C159.043 116.365 158.041 117.379 156.761 118.104C155.502 118.808 154.073 119.16 152.473 119.16C151.107 119.16 149.87 118.883 148.761 118.328C147.673 117.752 146.777 116.92 146.073 115.832V125.208H143.801V102.168H145.977V105.496C146.659 104.387 147.555 103.533 148.665 102.936C149.795 102.339 151.065 102.04 152.473 102.04ZM152.313 117.144C153.486 117.144 154.553 116.877 155.513 116.344C156.473 115.789 157.219 115.011 157.753 114.008C158.307 113.005 158.585 111.864 158.585 110.584C158.585 109.304 158.307 108.173 157.753 107.192C157.219 106.189 156.473 105.411 155.513 104.856C154.553 104.301 153.486 104.024 152.313 104.024C151.118 104.024 150.041 104.301 149.081 104.856C148.142 105.411 147.395 106.189 146.841 107.192C146.307 108.173 146.041 109.304 146.041 110.584C146.041 111.864 146.307 113.005 146.841 114.008C147.395 115.011 148.142 115.789 149.081 116.344C150.041 116.877 151.118 117.144 152.313 117.144ZM172.759 117.144C173.804 117.144 174.764 116.963 175.639 116.6C176.535 116.216 177.292 115.661 177.911 114.936L179.191 116.408C178.444 117.304 177.516 117.987 176.407 118.456C175.297 118.925 174.071 119.16 172.727 119.16C170.999 119.16 169.463 118.797 168.119 118.072C166.775 117.325 165.729 116.301 164.983 115C164.236 113.699 163.863 112.227 163.863 110.584C163.863 108.941 164.215 107.469 164.919 106.168C165.644 104.867 166.636 103.853 167.895 103.128C169.153 102.403 170.583 102.04 172.183 102.04C173.676 102.04 175.02 102.381 176.215 103.064C177.431 103.747 178.391 104.696 179.095 105.912C179.82 107.128 180.204 108.515 180.247 110.072L166.423 112.76C166.849 114.125 167.617 115.203 168.727 115.992C169.857 116.76 171.201 117.144 172.759 117.144ZM172.183 103.992C171.009 103.992 169.953 104.269 169.015 104.824C168.097 105.357 167.372 106.115 166.839 107.096C166.327 108.056 166.071 109.165 166.071 110.424C166.071 110.744 166.081 110.979 166.103 111.128L177.975 108.824C177.719 107.416 177.068 106.264 176.023 105.368C174.977 104.451 173.697 103.992 172.183 103.992ZM187.117 105.464C187.651 104.333 188.44 103.48 189.485 102.904C190.552 102.328 191.864 102.04 193.421 102.04V104.248L192.877 104.216C191.107 104.216 189.72 104.76 188.717 105.848C187.715 106.936 187.213 108.461 187.213 110.424V119H184.941V102.168H187.117V105.464ZM202.243 119.16C200.877 119.16 199.565 118.968 198.307 118.584C197.069 118.179 196.099 117.677 195.395 117.08L196.419 115.288C197.123 115.843 198.008 116.301 199.075 116.664C200.141 117.005 201.251 117.176 202.403 117.176C203.939 117.176 205.069 116.941 205.795 116.472C206.541 115.981 206.915 115.299 206.915 114.424C206.915 113.805 206.712 113.325 206.307 112.984C205.901 112.621 205.389 112.355 204.771 112.184C204.152 111.992 203.331 111.811 202.307 111.64C200.941 111.384 199.843 111.128 199.011 110.872C198.179 110.595 197.464 110.136 196.867 109.496C196.291 108.856 196.003 107.971 196.003 106.84C196.003 105.432 196.589 104.28 197.763 103.384C198.936 102.488 200.568 102.04 202.659 102.04C203.747 102.04 204.835 102.189 205.923 102.488C207.011 102.765 207.907 103.139 208.611 103.608L207.619 105.432C206.232 104.472 204.579 103.992 202.659 103.992C201.208 103.992 200.109 104.248 199.363 104.76C198.637 105.272 198.275 105.944 198.275 106.776C198.275 107.416 198.477 107.928 198.883 108.312C199.309 108.696 199.832 108.984 200.451 109.176C201.069 109.347 201.923 109.528 203.01 109.72C204.355 109.976 205.432 110.232 206.243 110.488C207.053 110.744 207.747 111.181 208.323 111.8C208.899 112.419 209.187 113.272 209.187 114.36C209.187 115.832 208.568 117.005 207.331 117.88C206.115 118.733 204.419 119.16 202.243 119.16ZM220.337 119.16C218.716 119.16 217.254 118.797 215.953 118.072C214.652 117.325 213.628 116.301 212.881 115C212.134 113.699 211.761 112.227 211.761 110.584C211.761 108.941 212.134 107.469 212.881 106.168C213.628 104.867 214.652 103.853 215.953 103.128C217.254 102.403 218.716 102.04 220.337 102.04C221.958 102.04 223.42 102.403 224.721 103.128C226.022 103.853 227.036 104.867 227.761 106.168C228.508 107.469 228.881 108.941 228.881 110.584C228.881 112.227 228.508 113.699 227.761 115C227.036 116.301 226.022 117.325 224.721 118.072C223.42 118.797 221.958 119.16 220.337 119.16ZM220.337 117.144C221.532 117.144 222.598 116.877 223.537 116.344C224.497 115.789 225.244 115.011 225.777 114.008C226.31 113.005 226.577 111.864 226.577 110.584C226.577 109.304 226.31 108.163 225.777 107.16C225.244 106.157 224.497 105.389 223.537 104.856C222.598 104.301 221.532 104.024 220.337 104.024C219.142 104.024 218.065 104.301 217.105 104.856C216.166 105.389 215.42 106.157 214.865 107.16C214.332 108.163 214.065 109.304 214.065 110.584C214.065 111.864 214.332 113.005 214.865 114.008C215.42 115.011 216.166 115.789 217.105 116.344C218.065 116.877 219.142 117.144 220.337 117.144ZM242.166 102.04C244.278 102.04 245.953 102.659 247.19 103.896C248.449 105.112 249.078 106.893 249.078 109.24V119H246.806V109.464C246.806 107.715 246.369 106.381 245.494 105.464C244.619 104.547 243.371 104.088 241.75 104.088C239.937 104.088 238.497 104.632 237.43 105.72C236.385 106.787 235.862 108.269 235.862 110.168V119H233.59V102.168H235.766V105.272C236.385 104.248 237.238 103.459 238.326 102.904C239.435 102.328 240.715 102.04 242.166 102.04ZM263.892 102.04C266.004 102.04 267.679 102.659 268.916 103.896C270.175 105.112 270.804 106.893 270.804 109.24V119H268.532V109.464C268.532 107.715 268.095 106.381 267.22 105.464C266.346 104.547 265.098 104.088 263.476 104.088C261.663 104.088 260.223 104.632 259.156 105.72C258.111 106.787 257.588 108.269 257.588 110.168V119H255.316V102.168H257.492V105.272C258.111 104.248 258.964 103.459 260.052 102.904C261.162 102.328 262.442 102.04 263.892 102.04ZM292.466 102.168V119H290.29V115.672C289.607 116.803 288.7 117.667 287.57 118.264C286.46 118.861 285.202 119.16 283.794 119.16C282.215 119.16 280.786 118.797 279.506 118.072C278.226 117.347 277.223 116.333 276.498 115.032C275.772 113.731 275.41 112.248 275.41 110.584C275.41 108.92 275.772 107.437 276.498 106.136C277.223 104.835 278.226 103.832 279.506 103.128C280.786 102.403 282.215 102.04 283.794 102.04C285.159 102.04 286.386 102.328 287.474 102.904C288.583 103.459 289.49 104.28 290.194 105.368V102.168H292.466ZM283.986 117.144C285.159 117.144 286.215 116.877 287.154 116.344C288.114 115.789 288.86 115.011 289.394 114.008C289.948 113.005 290.226 111.864 290.226 110.584C290.226 109.304 289.948 108.163 289.394 107.16C288.86 106.157 288.114 105.389 287.154 104.856C286.215 104.301 285.159 104.024 283.986 104.024C282.791 104.024 281.714 104.301 280.754 104.856C279.815 105.389 279.068 106.157 278.514 107.16C277.98 108.163 277.714 109.304 277.714 110.584C277.714 111.864 277.98 113.005 278.514 114.008C279.068 115.011 279.815 115.789 280.754 116.344C281.714 116.877 282.791 117.144 283.986 117.144ZM303.599 119.16C302.085 119.16 300.911 118.733 300.079 117.88C299.269 117.027 298.863 115.843 298.863 114.328V95.256H301.135V114.136C301.135 115.139 301.37 115.907 301.839 116.44C302.309 116.952 303.013 117.208 303.951 117.208C304.549 117.208 305.061 117.112 305.487 116.92L305.647 118.808C304.986 119.043 304.303 119.16 303.599 119.16ZM308.809 102.168H311.081V119H308.809V102.168ZM309.961 98.488C309.491 98.488 309.097 98.328 308.777 98.008C308.457 97.688 308.297 97.304 308.297 96.856C308.297 96.4293 308.457 96.056 308.777 95.736C309.097 95.416 309.491 95.256 309.961 95.256C310.43 95.256 310.825 95.416 311.145 95.736C311.465 96.0347 311.625 96.3973 311.625 96.824C311.625 97.2933 311.465 97.688 311.145 98.008C310.825 98.328 310.43 98.488 309.961 98.488ZM321.985 119.16C320.619 119.16 319.307 118.968 318.049 118.584C316.811 118.179 315.841 117.677 315.137 117.08L316.161 115.288C316.865 115.843 317.75 116.301 318.817 116.664C319.883 117.005 320.993 117.176 322.145 117.176C323.681 117.176 324.811 116.941 325.537 116.472C326.283 115.981 326.657 115.299 326.657 114.424C326.657 113.805 326.454 113.325 326.049 112.984C325.643 112.621 325.131 112.355 324.513 112.184C323.894 111.992 323.073 111.811 322.049 111.64C320.683 111.384 319.585 111.128 318.753 110.872C317.921 110.595 317.206 110.136 316.609 109.496C316.033 108.856 315.745 107.971 315.745 106.84C315.745 105.432 316.331 104.28 317.505 103.384C318.678 102.488 320.31 102.04 322.401 102.04C323.489 102.04 324.577 102.189 325.665 102.488C326.753 102.765 327.649 103.139 328.353 103.608L327.361 105.432C325.974 104.472 324.321 103.992 322.401 103.992C320.95 103.992 319.851 104.248 319.105 104.76C318.379 105.272 318.017 105.944 318.017 106.776C318.017 107.416 318.219 107.928 318.625 108.312C319.051 108.696 319.574 108.984 320.193 109.176C320.811 109.347 321.665 109.528 322.753 109.72C324.097 109.976 325.174 110.232 325.985 110.488C326.795 110.744 327.489 111.181 328.065 111.8C328.641 112.419 328.929 113.272 328.929 114.36C328.929 115.832 328.31 117.005 327.073 117.88C325.857 118.733 324.161 119.16 321.985 119.16ZM348.559 102.168V119H346.383V115.672C345.701 116.803 344.794 117.667 343.663 118.264C342.554 118.861 341.295 119.16 339.887 119.16C338.309 119.16 336.879 118.797 335.599 118.072C334.319 117.347 333.317 116.333 332.591 115.032C331.866 113.731 331.503 112.248 331.503 110.584C331.503 108.92 331.866 107.437 332.591 106.136C333.317 104.835 334.319 103.832 335.599 103.128C336.879 102.403 338.309 102.04 339.887 102.04C341.253 102.04 342.479 102.328 343.567 102.904C344.677 103.459 345.583 104.28 346.287 105.368V102.168H348.559ZM340.079 117.144C341.253 117.144 342.309 116.877 343.247 116.344C344.207 115.789 344.954 115.011 345.487 114.008C346.042 113.005 346.319 111.864 346.319 110.584C346.319 109.304 346.042 108.163 345.487 107.16C344.954 106.157 344.207 105.389 343.247 104.856C342.309 104.301 341.253 104.024 340.079 104.024C338.885 104.024 337.807 104.301 336.847 104.856C335.909 105.389 335.162 106.157 334.607 107.16C334.074 108.163 333.807 109.304 333.807 110.584C333.807 111.864 334.074 113.005 334.607 114.008C335.162 115.011 335.909 115.789 336.847 116.344C337.807 116.877 338.885 117.144 340.079 117.144ZM363.629 102.04C365.208 102.04 366.637 102.403 367.917 103.128C369.197 103.832 370.2 104.835 370.925 106.136C371.65 107.437 372.013 108.92 372.013 110.584C372.013 112.248 371.65 113.731 370.925 115.032C370.2 116.333 369.197 117.347 367.917 118.072C366.637 118.797 365.208 119.16 363.629 119.16C362.221 119.16 360.952 118.861 359.821 118.264C358.712 117.667 357.816 116.803 357.133 115.672V119H354.957V95.256H357.229V105.368C357.933 104.28 358.829 103.459 359.917 102.904C361.026 102.328 362.264 102.04 363.629 102.04ZM363.469 117.144C364.642 117.144 365.709 116.877 366.669 116.344C367.629 115.789 368.376 115.011 368.909 114.008C369.464 113.005 369.741 111.864 369.741 110.584C369.741 109.304 369.464 108.163 368.909 107.16C368.376 106.157 367.629 105.389 366.669 104.856C365.709 104.301 364.642 104.024 363.469 104.024C362.274 104.024 361.197 104.301 360.237 104.856C359.298 105.389 358.552 106.157 357.997 107.16C357.464 108.163 357.197 109.304 357.197 110.584C357.197 111.864 357.464 113.005 357.997 114.008C358.552 115.011 359.298 115.789 360.237 116.344C361.197 116.877 362.274 117.144 363.469 117.144ZM381.451 119.16C379.936 119.16 378.763 118.733 377.931 117.88C377.12 117.027 376.715 115.843 376.715 114.328V95.256H378.987V114.136C378.987 115.139 379.222 115.907 379.691 116.44C380.16 116.952 380.864 117.208 381.803 117.208C382.4 117.208 382.912 117.112 383.339 116.92L383.499 118.808C382.838 119.043 382.155 119.16 381.451 119.16ZM393.548 117.144C394.593 117.144 395.553 116.963 396.428 116.6C397.324 116.216 398.081 115.661 398.7 114.936L399.98 116.408C399.233 117.304 398.305 117.987 397.196 118.456C396.086 118.925 394.86 119.16 393.516 119.16C391.788 119.16 390.252 118.797 388.908 118.072C387.564 117.325 386.518 116.301 385.772 115C385.025 113.699 384.652 112.227 384.652 110.584C384.652 108.941 385.004 107.469 385.708 106.168C386.433 104.867 387.425 103.853 388.684 103.128C389.942 102.403 391.372 102.04 392.972 102.04C394.465 102.04 395.809 102.381 397.004 103.064C398.22 103.747 399.18 104.696 399.884 105.912C400.609 107.128 400.993 108.515 401.036 110.072L387.212 112.76C387.638 114.125 388.406 115.203 389.516 115.992C390.646 116.76 391.99 117.144 393.548 117.144ZM392.972 103.992C391.798 103.992 390.742 104.269 389.804 104.824C388.886 105.357 388.161 106.115 387.628 107.096C387.116 108.056 386.86 109.165 386.86 110.424C386.86 110.744 386.87 110.979 386.892 111.128L398.764 108.824C398.508 107.416 397.857 106.264 396.812 105.368C395.766 104.451 394.486 103.992 392.972 103.992ZM410.243 119.16C408.877 119.16 407.565 118.968 406.307 118.584C405.069 118.179 404.099 117.677 403.395 117.08L404.419 115.288C405.123 115.843 406.008 116.301 407.075 116.664C408.141 117.005 409.251 117.176 410.403 117.176C411.939 117.176 413.069 116.941 413.795 116.472C414.541 115.981 414.915 115.299 414.915 114.424C414.915 113.805 414.712 113.325 414.307 112.984C413.901 112.621 413.389 112.355 412.771 112.184C412.152 111.992 411.331 111.811 410.307 111.64C408.941 111.384 407.843 111.128 407.011 110.872C406.179 110.595 405.464 110.136 404.867 109.496C404.291 108.856 404.003 107.971 404.003 106.84C404.003 105.432 404.589 104.28 405.763 103.384C406.936 102.488 408.568 102.04 410.659 102.04C411.747 102.04 412.835 102.189 413.923 102.488C415.011 102.765 415.907 103.139 416.611 103.608L415.619 105.432C414.232 104.472 412.579 103.992 410.659 103.992C409.208 103.992 408.109 104.248 407.363 104.76C406.637 105.272 406.275 105.944 406.275 106.776C406.275 107.416 406.477 107.928 406.883 108.312C407.309 108.696 407.832 108.984 408.451 109.176C409.069 109.347 409.923 109.528 411.01 109.72C412.355 109.976 413.432 110.232 414.243 110.488C415.053 110.744 415.747 111.181 416.323 111.8C416.899 112.419 417.187 113.272 417.187 114.36C417.187 115.832 416.568 117.005 415.331 117.88C414.115 118.733 412.419 119.16 410.243 119.16Z" fill="#2C2A2A"/>
</svg>
