<svg width="171" height="51" viewBox="0 0 171 51" fill="none" xmlns="http://www.w3.org/2000/svg">
<path d="M48.568 8.012C46.6453 6.892 44.5173 6.248 42.184 6.08V24H40.112V6.08C37.816 6.22933 35.6787 6.87333 33.7 8.012L32.944 6.388C35.3707 4.95067 38.096 4.232 41.12 4.232C44.2 4.232 46.9347 4.95067 49.324 6.388L48.568 8.012ZM60.2664 4.232C62.8051 4.232 64.8024 4.97867 66.2584 6.472C67.7331 7.94667 68.4704 10.084 68.4704 12.884V24H66.4264V18.232H54.1064V24H52.0904V12.884C52.0904 10.084 52.8184 7.94667 54.2744 6.472C55.7491 4.97867 57.7464 4.232 60.2664 4.232ZM66.4264 16.44V12.688C66.4264 10.504 65.8851 8.86133 64.8024 7.76C63.7197 6.64 62.2077 6.08 60.2664 6.08C58.3251 6.08 56.8131 6.64 55.7304 7.76C54.6477 8.86133 54.1064 10.504 54.1064 12.688V16.44H66.4264Z" fill="#2C2A2A"/>
<path d="M98.445 4.4L89.765 24H87.721L79.041 4.4H81.281L88.785 21.424L96.345 4.4H98.445ZM117.646 4.4V24H115.658V20.696C114.37 23.0107 112.177 24.168 109.078 24.168C106.745 24.168 104.915 23.468 103.59 22.068C102.265 20.668 101.602 18.6707 101.602 16.076V4.4H103.674V16.02C103.674 18.092 104.178 19.66 105.186 20.724C106.213 21.788 107.641 22.32 109.47 22.32C111.393 22.32 112.886 21.76 113.95 20.64C115.033 19.5013 115.574 17.8027 115.574 15.544V4.4H117.646ZM138.098 21.76C137.296 22.5253 136.222 23.1227 134.878 23.552C133.553 23.9627 132.078 24.168 130.454 24.168C128.737 24.168 127.272 23.9347 126.058 23.468C124.864 23.0013 123.958 22.3573 123.342 21.536C122.745 20.7147 122.446 19.772 122.446 18.708C122.446 17.532 122.792 16.5333 123.482 15.712C124.192 14.8907 125.116 14.3213 126.254 14.004C125.321 13.6493 124.593 13.0893 124.07 12.324C123.548 11.54 123.286 10.6253 123.286 9.58C123.286 8.59067 123.566 7.69467 124.126 6.892C124.705 6.07067 125.564 5.42667 126.702 4.96C127.86 4.47467 129.25 4.232 130.874 4.232C132.069 4.232 133.226 4.372 134.346 4.652C135.485 4.91333 136.456 5.296 137.258 5.8L136.614 7.452C134.897 6.48133 133.012 5.996 130.958 5.996C129.148 5.996 127.757 6.34133 126.786 7.032C125.834 7.72267 125.358 8.61867 125.358 9.72C125.358 10.8213 125.741 11.6707 126.506 12.268C127.29 12.8653 128.392 13.164 129.81 13.164H134.682V14.956H129.726C128.121 14.956 126.852 15.264 125.918 15.88C124.985 16.4773 124.518 17.3733 124.518 18.568C124.518 19.744 125.022 20.6773 126.03 21.368C127.057 22.0587 128.56 22.404 130.538 22.404C131.92 22.404 133.208 22.208 134.402 21.816C135.597 21.424 136.568 20.8827 137.314 20.192L138.098 21.76Z" fill="#70D7E7"/>
<path d="M3.211 42.065C2.59567 42.065 2.119 41.8917 1.781 41.545C1.45167 41.1983 1.287 40.7173 1.287 40.102V32.354H2.21V40.024C2.21 40.4313 2.30533 40.7433 2.496 40.96C2.68667 41.168 2.97267 41.272 3.354 41.272C3.59667 41.272 3.80467 41.233 3.978 41.155L4.043 41.922C3.77433 42.0173 3.497 42.065 3.211 42.065ZM11.531 35.162V42H10.647V40.752C10.4044 41.168 10.0707 41.493 9.64603 41.727C9.22136 41.9523 8.73603 42.065 8.19003 42.065C7.29736 42.065 6.59103 41.818 6.07103 41.324C5.5597 40.8213 5.30403 40.089 5.30403 39.127V35.162H6.22703V39.036C6.22703 39.7553 6.4047 40.3013 6.76003 40.674C7.11536 41.0467 7.62236 41.233 8.28103 41.233C9.00036 41.233 9.56803 41.0163 9.98403 40.583C10.4 40.141 10.608 39.53 10.608 38.75V35.162H11.531ZM17.6704 35.11C18.5284 35.11 19.2087 35.3613 19.7114 35.864C20.2227 36.358 20.4784 37.0817 20.4784 38.035V42H19.5554V38.126C19.5554 37.4153 19.3777 36.8737 19.0224 36.501C18.6671 36.1283 18.1601 35.942 17.5014 35.942C16.7647 35.942 16.1797 36.163 15.7464 36.605C15.3217 37.0383 15.1094 37.6407 15.1094 38.412V42H14.1864V35.162H15.0704V36.423C15.3217 36.007 15.6684 35.6863 16.1104 35.461C16.5611 35.227 17.0811 35.11 17.6704 35.11ZM26.005 41.246C26.4296 41.246 26.8196 41.1723 27.175 41.025C27.539 40.869 27.8466 40.6437 28.098 40.349L28.618 40.947C28.3146 41.311 27.9376 41.5883 27.487 41.779C27.0363 41.9697 26.538 42.065 25.992 42.065C25.29 42.065 24.666 41.9177 24.12 41.623C23.574 41.3197 23.1493 40.9037 22.846 40.375C22.5426 39.8463 22.391 39.2483 22.391 38.581C22.391 37.9137 22.534 37.3157 22.82 36.787C23.1146 36.2583 23.5176 35.8467 24.029 35.552C24.5403 35.2573 25.121 35.11 25.771 35.11C26.3776 35.11 26.9236 35.2487 27.409 35.526C27.903 35.8033 28.293 36.189 28.579 36.683C28.8736 37.177 29.0296 37.7403 29.047 38.373L23.431 39.465C23.6043 40.0197 23.9163 40.4573 24.367 40.778C24.8263 41.09 25.3723 41.246 26.005 41.246ZM25.771 35.903C25.2943 35.903 24.8653 36.0157 24.484 36.241C24.1113 36.4577 23.8166 36.7653 23.6 37.164C23.392 37.554 23.288 38.0047 23.288 38.516C23.288 38.646 23.2923 38.7413 23.301 38.802L28.124 37.866C28.02 37.294 27.7556 36.826 27.331 36.462C26.9063 36.0893 26.3863 35.903 25.771 35.903ZM34.363 41.584C34.1897 41.74 33.9773 41.8613 33.726 41.948C33.4747 42.026 33.2103 42.065 32.933 42.065C32.2917 42.065 31.7977 41.8917 31.451 41.545C31.1043 41.1983 30.931 40.7087 30.931 40.076V33.667H31.854V35.162H33.921V35.942H31.854V40.024C31.854 40.4313 31.9537 40.7433 32.153 40.96C32.3523 41.168 32.6427 41.272 33.024 41.272C33.44 41.272 33.778 41.155 34.038 40.921L34.363 41.584ZM39.4733 41.584C39.3 41.74 39.0877 41.8613 38.8363 41.948C38.585 42.026 38.3207 42.065 38.0433 42.065C37.402 42.065 36.908 41.8917 36.5613 41.545C36.2147 41.1983 36.0413 40.7087 36.0413 40.076V33.667H36.9643V35.162H39.0313V35.942H36.9643V40.024C36.9643 40.4313 37.064 40.7433 37.2633 40.96C37.4627 41.168 37.753 41.272 38.1343 41.272C38.5503 41.272 38.8883 41.155 39.1483 40.921L39.4733 41.584ZM43.9005 41.246C44.3251 41.246 44.7151 41.1723 45.0705 41.025C45.4345 40.869 45.7421 40.6437 45.9935 40.349L46.5135 40.947C46.2101 41.311 45.8331 41.5883 45.3825 41.779C44.9318 41.9697 44.4335 42.065 43.8875 42.065C43.1855 42.065 42.5615 41.9177 42.0155 41.623C41.4695 41.3197 41.0448 40.9037 40.7415 40.375C40.4381 39.8463 40.2865 39.2483 40.2865 38.581C40.2865 37.9137 40.4295 37.3157 40.7155 36.787C41.0101 36.2583 41.4131 35.8467 41.9245 35.552C42.4358 35.2573 43.0165 35.11 43.6665 35.11C44.2731 35.11 44.8191 35.2487 45.3045 35.526C45.7985 35.8033 46.1885 36.189 46.4745 36.683C46.7691 37.177 46.9251 37.7403 46.9425 38.373L41.3265 39.465C41.4998 40.0197 41.8118 40.4573 42.2625 40.778C42.7218 41.09 43.2678 41.246 43.9005 41.246ZM43.6665 35.903C43.1898 35.903 42.7608 36.0157 42.3795 36.241C42.0068 36.4577 41.7121 36.7653 41.4955 37.164C41.2875 37.554 41.1835 38.0047 41.1835 38.516C41.1835 38.646 41.1878 38.7413 41.1965 38.802L46.0195 37.866C45.9155 37.294 45.6511 36.826 45.2265 36.462C44.8018 36.0893 44.2818 35.903 43.6665 35.903ZM50.7245 42.065C50.1698 42.065 49.6368 41.987 49.1255 41.831C48.6228 41.6663 48.2285 41.4627 47.9425 41.22L48.3585 40.492C48.6445 40.7173 49.0042 40.9037 49.4375 41.051C49.8708 41.1897 50.3215 41.259 50.7895 41.259C51.4135 41.259 51.8728 41.1637 52.1675 40.973C52.4708 40.7737 52.6225 40.4963 52.6225 40.141C52.6225 39.8897 52.5402 39.6947 52.3755 39.556C52.2108 39.4087 52.0028 39.3003 51.7515 39.231C51.5002 39.153 51.1665 39.0793 50.7505 39.01C50.1958 38.906 49.7495 38.802 49.4115 38.698C49.0735 38.5853 48.7832 38.399 48.5405 38.139C48.3065 37.879 48.1895 37.5193 48.1895 37.06C48.1895 36.488 48.4278 36.02 48.9045 35.656C49.3812 35.292 50.0442 35.11 50.8935 35.11C51.3355 35.11 51.7775 35.1707 52.2195 35.292C52.6615 35.4047 53.0255 35.5563 53.3115 35.747L52.9085 36.488C52.3452 36.098 51.6735 35.903 50.8935 35.903C50.3042 35.903 49.8578 36.007 49.5545 36.215C49.2598 36.423 49.1125 36.696 49.1125 37.034C49.1125 37.294 49.1948 37.502 49.3595 37.658C49.5328 37.814 49.7452 37.931 49.9965 38.009C50.2478 38.0783 50.5945 38.152 51.0365 38.23C51.5825 38.334 52.0202 38.438 52.3495 38.542C52.6788 38.646 52.9605 38.8237 53.1945 39.075C53.4285 39.3263 53.5455 39.673 53.5455 40.115C53.5455 40.713 53.2942 41.1897 52.7915 41.545C52.2975 41.8917 51.6085 42.065 50.7245 42.065ZM62.3178 35.11C62.9591 35.11 63.5398 35.2573 64.0598 35.552C64.5798 35.838 64.9871 36.2453 65.2818 36.774C65.5765 37.3027 65.7238 37.905 65.7238 38.581C65.7238 39.2657 65.5765 39.8723 65.2818 40.401C64.9871 40.9297 64.5798 41.3413 64.0598 41.636C63.5485 41.922 62.9678 42.065 62.3178 42.065C61.7631 42.065 61.2605 41.9523 60.8098 41.727C60.3678 41.493 60.0038 41.155 59.7178 40.713V44.522H58.7948V35.162H59.6788V36.514C59.9561 36.0633 60.3201 35.7167 60.7708 35.474C61.2301 35.2313 61.7458 35.11 62.3178 35.11ZM62.2528 41.246C62.7295 41.246 63.1628 41.1377 63.5528 40.921C63.9428 40.6957 64.2461 40.3793 64.4628 39.972C64.6881 39.5647 64.8008 39.101 64.8008 38.581C64.8008 38.061 64.6881 37.6017 64.4628 37.203C64.2461 36.7957 63.9428 36.4793 63.5528 36.254C63.1628 36.0287 62.7295 35.916 62.2528 35.916C61.7675 35.916 61.3298 36.0287 60.9398 36.254C60.5585 36.4793 60.2551 36.7957 60.0298 37.203C59.8131 37.6017 59.7048 38.061 59.7048 38.581C59.7048 39.101 59.8131 39.5647 60.0298 39.972C60.2551 40.3793 60.5585 40.6957 60.9398 40.921C61.3298 41.1377 61.7675 41.246 62.2528 41.246ZM70.6007 41.246C71.0253 41.246 71.4153 41.1723 71.7707 41.025C72.1347 40.869 72.4423 40.6437 72.6937 40.349L73.2137 40.947C72.9103 41.311 72.5333 41.5883 72.0827 41.779C71.632 41.9697 71.1337 42.065 70.5877 42.065C69.8857 42.065 69.2617 41.9177 68.7157 41.623C68.1697 41.3197 67.745 40.9037 67.4417 40.375C67.1383 39.8463 66.9867 39.2483 66.9867 38.581C66.9867 37.9137 67.1297 37.3157 67.4157 36.787C67.7103 36.2583 68.1133 35.8467 68.6247 35.552C69.136 35.2573 69.7167 35.11 70.3667 35.11C70.9733 35.11 71.5193 35.2487 72.0047 35.526C72.4987 35.8033 72.8887 36.189 73.1747 36.683C73.4693 37.177 73.6253 37.7403 73.6427 38.373L68.0267 39.465C68.2 40.0197 68.512 40.4573 68.9627 40.778C69.422 41.09 69.968 41.246 70.6007 41.246ZM70.3667 35.903C69.89 35.903 69.461 36.0157 69.0797 36.241C68.707 36.4577 68.4123 36.7653 68.1957 37.164C67.9877 37.554 67.8837 38.0047 67.8837 38.516C67.8837 38.646 67.888 38.7413 67.8967 38.802L72.7197 37.866C72.6157 37.294 72.3513 36.826 71.9267 36.462C71.502 36.0893 70.982 35.903 70.3667 35.903ZM76.4757 36.501C76.6924 36.0417 77.013 35.695 77.4377 35.461C77.871 35.227 78.404 35.11 79.0367 35.11V36.007L78.8157 35.994C78.0964 35.994 77.533 36.215 77.1257 36.657C76.7184 37.099 76.5147 37.7187 76.5147 38.516V42H75.5917V35.162H76.4757V36.501ZM82.662 42.065C82.1073 42.065 81.5743 41.987 81.063 41.831C80.5603 41.6663 80.166 41.4627 79.88 41.22L80.296 40.492C80.582 40.7173 80.9417 40.9037 81.375 41.051C81.8083 41.1897 82.259 41.259 82.727 41.259C83.351 41.259 83.8103 41.1637 84.105 40.973C84.4083 40.7737 84.56 40.4963 84.56 40.141C84.56 39.8897 84.4777 39.6947 84.313 39.556C84.1483 39.4087 83.9403 39.3003 83.689 39.231C83.4377 39.153 83.104 39.0793 82.688 39.01C82.1333 38.906 81.687 38.802 81.349 38.698C81.011 38.5853 80.7207 38.399 80.478 38.139C80.244 37.879 80.127 37.5193 80.127 37.06C80.127 36.488 80.3653 36.02 80.842 35.656C81.3187 35.292 81.9817 35.11 82.831 35.11C83.273 35.11 83.715 35.1707 84.157 35.292C84.599 35.4047 84.963 35.5563 85.249 35.747L84.846 36.488C84.2827 36.098 83.611 35.903 82.831 35.903C82.2417 35.903 81.7953 36.007 81.492 36.215C81.1973 36.423 81.05 36.696 81.05 37.034C81.05 37.294 81.1323 37.502 81.297 37.658C81.4703 37.814 81.6827 37.931 81.934 38.009C82.1853 38.0783 82.532 38.152 82.974 38.23C83.52 38.334 83.9577 38.438 84.287 38.542C84.6163 38.646 84.898 38.8237 85.132 39.075C85.366 39.3263 85.483 39.673 85.483 40.115C85.483 40.713 85.2317 41.1897 84.729 41.545C84.235 41.8917 83.546 42.065 82.662 42.065ZM90.0547 42.065C89.396 42.065 88.8023 41.9177 88.2737 41.623C87.745 41.3197 87.329 40.9037 87.0257 40.375C86.7223 39.8463 86.5707 39.2483 86.5707 38.581C86.5707 37.9137 86.7223 37.3157 87.0257 36.787C87.329 36.2583 87.745 35.8467 88.2737 35.552C88.8023 35.2573 89.396 35.11 90.0547 35.11C90.7133 35.11 91.307 35.2573 91.8357 35.552C92.3643 35.8467 92.776 36.2583 93.0707 36.787C93.374 37.3157 93.5257 37.9137 93.5257 38.581C93.5257 39.2483 93.374 39.8463 93.0707 40.375C92.776 40.9037 92.3643 41.3197 91.8357 41.623C91.307 41.9177 90.7133 42.065 90.0547 42.065ZM90.0547 41.246C90.54 41.246 90.9733 41.1377 91.3547 40.921C91.7447 40.6957 92.048 40.3793 92.2647 39.972C92.4813 39.5647 92.5897 39.101 92.5897 38.581C92.5897 38.061 92.4813 37.5973 92.2647 37.19C92.048 36.7827 91.7447 36.4707 91.3547 36.254C90.9733 36.0287 90.54 35.916 90.0547 35.916C89.5693 35.916 89.1317 36.0287 88.7417 36.254C88.3603 36.4707 88.057 36.7827 87.8317 37.19C87.615 37.5973 87.5067 38.061 87.5067 38.581C87.5067 39.101 87.615 39.5647 87.8317 39.972C88.057 40.3793 88.3603 40.6957 88.7417 40.921C89.1317 41.1377 89.5693 41.246 90.0547 41.246ZM98.9644 35.11C99.8224 35.11 100.503 35.3613 101.005 35.864C101.517 36.358 101.772 37.0817 101.772 38.035V42H100.849V38.126C100.849 37.4153 100.672 36.8737 100.316 36.501C99.961 36.1283 99.454 35.942 98.7954 35.942C98.0587 35.942 97.4737 36.163 97.0404 36.605C96.6157 37.0383 96.4034 37.6407 96.4034 38.412V42H95.4804V35.162H96.3644V36.423C96.6157 36.007 96.9624 35.6863 97.4044 35.461C97.855 35.227 98.375 35.11 98.9644 35.11ZM107.833 35.11C108.691 35.11 109.371 35.3613 109.874 35.864C110.385 36.358 110.641 37.0817 110.641 38.035V42H109.718V38.126C109.718 37.4153 109.54 36.8737 109.185 36.501C108.829 36.1283 108.322 35.942 107.664 35.942C106.927 35.942 106.342 36.163 105.909 36.605C105.484 37.0383 105.272 37.6407 105.272 38.412V42H104.349V35.162H105.233V36.423C105.484 36.007 105.831 35.6863 106.273 35.461C106.723 35.227 107.243 35.11 107.833 35.11ZM119.482 35.162V42H118.598V40.648C118.321 41.1073 117.952 41.4583 117.493 41.701C117.042 41.9437 116.531 42.065 115.959 42.065C115.318 42.065 114.737 41.9177 114.217 41.623C113.697 41.3283 113.29 40.9167 112.995 40.388C112.7 39.8593 112.553 39.257 112.553 38.581C112.553 37.905 112.7 37.3027 112.995 36.774C113.29 36.2453 113.697 35.838 114.217 35.552C114.737 35.2573 115.318 35.11 115.959 35.11C116.514 35.11 117.012 35.227 117.454 35.461C117.905 35.6863 118.273 36.02 118.559 36.462V35.162H119.482ZM116.037 41.246C116.514 41.246 116.943 41.1377 117.324 40.921C117.714 40.6957 118.017 40.3793 118.234 39.972C118.459 39.5647 118.572 39.101 118.572 38.581C118.572 38.061 118.459 37.5973 118.234 37.19C118.017 36.7827 117.714 36.4707 117.324 36.254C116.943 36.0287 116.514 35.916 116.037 35.916C115.552 35.916 115.114 36.0287 114.724 36.254C114.343 36.4707 114.039 36.7827 113.814 37.19C113.597 37.5973 113.489 38.061 113.489 38.581C113.489 39.101 113.597 39.5647 113.814 39.972C114.039 40.3793 114.343 40.6957 114.724 40.921C115.114 41.1377 115.552 41.246 116.037 41.246ZM124.047 42.065C123.432 42.065 122.955 41.8917 122.617 41.545C122.288 41.1983 122.123 40.7173 122.123 40.102V32.354H123.046V40.024C123.046 40.4313 123.141 40.7433 123.332 40.96C123.523 41.168 123.809 41.272 124.19 41.272C124.433 41.272 124.641 41.233 124.814 41.155L124.879 41.922C124.61 42.0173 124.333 42.065 124.047 42.065ZM126.205 35.162H127.128V42H126.205V35.162ZM126.673 33.667C126.482 33.667 126.322 33.602 126.192 33.472C126.062 33.342 125.997 33.186 125.997 33.004C125.997 32.8307 126.062 32.679 126.192 32.549C126.322 32.419 126.482 32.354 126.673 32.354C126.864 32.354 127.024 32.419 127.154 32.549C127.284 32.6703 127.349 32.8177 127.349 32.991C127.349 33.1817 127.284 33.342 127.154 33.472C127.024 33.602 126.864 33.667 126.673 33.667ZM131.599 42.065C131.045 42.065 130.512 41.987 130 41.831C129.498 41.6663 129.103 41.4627 128.817 41.22L129.233 40.492C129.519 40.7173 129.879 40.9037 130.312 41.051C130.746 41.1897 131.196 41.259 131.664 41.259C132.288 41.259 132.748 41.1637 133.042 40.973C133.346 40.7737 133.497 40.4963 133.497 40.141C133.497 39.8897 133.415 39.6947 133.25 39.556C133.086 39.4087 132.878 39.3003 132.626 39.231C132.375 39.153 132.041 39.0793 131.625 39.01C131.071 38.906 130.624 38.802 130.286 38.698C129.948 38.5853 129.658 38.399 129.415 38.139C129.181 37.879 129.064 37.5193 129.064 37.06C129.064 36.488 129.303 36.02 129.779 35.656C130.256 35.292 130.919 35.11 131.768 35.11C132.21 35.11 132.652 35.1707 133.094 35.292C133.536 35.4047 133.9 35.5563 134.186 35.747L133.783 36.488C133.22 36.098 132.548 35.903 131.768 35.903C131.179 35.903 130.733 36.007 130.429 36.215C130.135 36.423 129.987 36.696 129.987 37.034C129.987 37.294 130.07 37.502 130.234 37.658C130.408 37.814 130.62 37.931 130.871 38.009C131.123 38.0783 131.469 38.152 131.911 38.23C132.457 38.334 132.895 38.438 133.224 38.542C133.554 38.646 133.835 38.8237 134.069 39.075C134.303 39.3263 134.42 39.673 134.42 40.115C134.42 40.713 134.169 41.1897 133.666 41.545C133.172 41.8917 132.483 42.065 131.599 42.065ZM142.437 35.162V42H141.553V40.648C141.276 41.1073 140.907 41.4583 140.448 41.701C139.997 41.9437 139.486 42.065 138.914 42.065C138.273 42.065 137.692 41.9177 137.172 41.623C136.652 41.3283 136.245 40.9167 135.95 40.388C135.655 39.8593 135.508 39.257 135.508 38.581C135.508 37.905 135.655 37.3027 135.95 36.774C136.245 36.2453 136.652 35.838 137.172 35.552C137.692 35.2573 138.273 35.11 138.914 35.11C139.469 35.11 139.967 35.227 140.409 35.461C140.86 35.6863 141.228 36.02 141.514 36.462V35.162H142.437ZM138.992 41.246C139.469 41.246 139.898 41.1377 140.279 40.921C140.669 40.6957 140.972 40.3793 141.189 39.972C141.414 39.5647 141.527 39.101 141.527 38.581C141.527 38.061 141.414 37.5973 141.189 37.19C140.972 36.7827 140.669 36.4707 140.279 36.254C139.898 36.0287 139.469 35.916 138.992 35.916C138.507 35.916 138.069 36.0287 137.679 36.254C137.298 36.4707 136.994 36.7827 136.769 37.19C136.552 37.5973 136.444 38.061 136.444 38.581C136.444 39.101 136.552 39.5647 136.769 39.972C136.994 40.3793 137.298 40.6957 137.679 40.921C138.069 41.1377 138.507 41.246 138.992 41.246ZM148.601 35.11C149.242 35.11 149.823 35.2573 150.343 35.552C150.863 35.838 151.27 36.2453 151.565 36.774C151.86 37.3027 152.007 37.905 152.007 38.581C152.007 39.257 151.86 39.8593 151.565 40.388C151.27 40.9167 150.863 41.3283 150.343 41.623C149.823 41.9177 149.242 42.065 148.601 42.065C148.029 42.065 147.513 41.9437 147.054 41.701C146.603 41.4583 146.239 41.1073 145.962 40.648V42H145.078V32.354H146.001V36.462C146.287 36.02 146.651 35.6863 147.093 35.461C147.544 35.227 148.046 35.11 148.601 35.11ZM148.536 41.246C149.013 41.246 149.446 41.1377 149.836 40.921C150.226 40.6957 150.529 40.3793 150.746 39.972C150.971 39.5647 151.084 39.101 151.084 38.581C151.084 38.061 150.971 37.5973 150.746 37.19C150.529 36.7827 150.226 36.4707 149.836 36.254C149.446 36.0287 149.013 35.916 148.536 35.916C148.051 35.916 147.613 36.0287 147.223 36.254C146.842 36.4707 146.538 36.7827 146.313 37.19C146.096 37.5973 145.988 38.061 145.988 38.581C145.988 39.101 146.096 39.5647 146.313 39.972C146.538 40.3793 146.842 40.6957 147.223 40.921C147.613 41.1377 148.051 41.246 148.536 41.246ZM155.883 42.065C155.268 42.065 154.791 41.8917 154.453 41.545C154.124 41.1983 153.959 40.7173 153.959 40.102V32.354H154.882V40.024C154.882 40.4313 154.977 40.7433 155.168 40.96C155.359 41.168 155.645 41.272 156.026 41.272C156.269 41.272 156.477 41.233 156.65 41.155L156.715 41.922C156.446 42.0173 156.169 42.065 155.883 42.065ZM160.839 41.246C161.264 41.246 161.654 41.1723 162.009 41.025C162.373 40.869 162.681 40.6437 162.932 40.349L163.452 40.947C163.149 41.311 162.772 41.5883 162.321 41.779C161.87 41.9697 161.372 42.065 160.826 42.065C160.124 42.065 159.5 41.9177 158.954 41.623C158.408 41.3197 157.983 40.9037 157.68 40.375C157.377 39.8463 157.225 39.2483 157.225 38.581C157.225 37.9137 157.368 37.3157 157.654 36.787C157.949 36.2583 158.352 35.8467 158.863 35.552C159.374 35.2573 159.955 35.11 160.605 35.11C161.212 35.11 161.758 35.2487 162.243 35.526C162.737 35.8033 163.127 36.189 163.413 36.683C163.708 37.177 163.864 37.7403 163.881 38.373L158.265 39.465C158.438 40.0197 158.75 40.4573 159.201 40.778C159.66 41.09 160.206 41.246 160.839 41.246ZM160.605 35.903C160.128 35.903 159.699 36.0157 159.318 36.241C158.945 36.4577 158.651 36.7653 158.434 37.164C158.226 37.554 158.122 38.0047 158.122 38.516C158.122 38.646 158.126 38.7413 158.135 38.802L162.958 37.866C162.854 37.294 162.59 36.826 162.165 36.462C161.74 36.0893 161.22 35.903 160.605 35.903ZM167.663 42.065C167.108 42.065 166.575 41.987 166.064 41.831C165.561 41.6663 165.167 41.4627 164.881 41.22L165.297 40.492C165.583 40.7173 165.943 40.9037 166.376 41.051C166.809 41.1897 167.26 41.259 167.728 41.259C168.352 41.259 168.811 41.1637 169.106 40.973C169.409 40.7737 169.561 40.4963 169.561 40.141C169.561 39.8897 169.479 39.6947 169.314 39.556C169.149 39.4087 168.941 39.3003 168.69 39.231C168.439 39.153 168.105 39.0793 167.689 39.01C167.134 38.906 166.688 38.802 166.35 38.698C166.012 38.5853 165.722 38.399 165.479 38.139C165.245 37.879 165.128 37.5193 165.128 37.06C165.128 36.488 165.366 36.02 165.843 35.656C166.32 35.292 166.983 35.11 167.832 35.11C168.274 35.11 168.716 35.1707 169.158 35.292C169.6 35.4047 169.964 35.5563 170.25 35.747L169.847 36.488C169.284 36.098 168.612 35.903 167.832 35.903C167.243 35.903 166.796 36.007 166.493 36.215C166.198 36.423 166.051 36.696 166.051 37.034C166.051 37.294 166.133 37.502 166.298 37.658C166.471 37.814 166.684 37.931 166.935 38.009C167.186 38.0783 167.533 38.152 167.975 38.23C168.521 38.334 168.959 38.438 169.288 38.542C169.617 38.646 169.899 38.8237 170.133 39.075C170.367 39.3263 170.484 39.673 170.484 40.115C170.484 40.713 170.233 41.1897 169.73 41.545C169.236 41.8917 168.547 42.065 167.663 42.065Z" fill="#2C2A2A"/>
</svg>
